PathFileType        4      (X/Y/Z)      Static.trc         
DataRate	CameraRate	NumFrames	NumMarkers	Units	OrigDataRate	OrigDataStartFrame	OrigNumFrames
100.0	100.0	5	33	mm	100.0	98	156
Frame#	Time	T2			T10			MANU			LASI			RASI			SACR			LTHI			LKAX			LKD1			LKD2			LKNE			LTIB			LANK			LMED			LHEE			LTOE			RTHI			RKAX			RKD1			RKD2			RKNE			RTIB			RANK			RMED			RHEE			RTOE			RHJC			LHJC			RKJC			LKJC			MASI			RAJC			LAJC			
		X1	Y1	Z1	X2	Y2	Z2	X3	Y3	Z3	X4	Y4	Z4	X5	Y5	Z5	X6	Y6	Z6	X7	Y7	Z7	X8	Y8	Z8	X9	Y9	Z9	X10	Y10	Z10	X11	Y11	Z11	X12	Y12	Z12	X13	Y13	Z13	X14	Y14	Z14	X15	Y15	Z15	X16	Y16	Z16	X17	Y17	Z17	X18	Y18	Z18	X19	Y19	Z19	X20	Y20	Z20	X21	Y21	Z21	X22	Y22	Z22	X23	Y23	Z23	X24	Y24	Z24	X25	Y25	Z25	X26	Y26	Z26	X27	Y27	Z27	X28	Y28	Z28	X29	Y29	Z29	X30	Y30	Z30	X31	Y31	Z31	X32	Y32	Z32	X33	Y33	Z33	
98	0.97	133.43099	1122.60698	-60.25589	109.15409	924.31266	-77.0902	246.55004	1049.55066	-47.5393	303.54105	736.23586	-149.63603	272.45997	740.32539	68.60121	167.05163	771.38801	-61.45355	307.73898	418.29686	-213.98526	316.1386	355.05228	-277.24643	408.43911	348.48453	-182.63754	310.49507	259.20731	-186.20952	314.86928	352.73164	-183.73654	203.53551	135.89028	-238.35747	156.6631	61.89824	-207.38599	157.42761	49.12167	-133.50629	95.01495	39.57893	-185.10425	268.65773	29.53728	-184.1888	300.62345	432.32697	112.98193	320.84207	361.49607	175.8388	409.75413	357.3479	68.27522	312.93117	265.98311	78.01484	313.76854	361.24717	77.93925	225.56431	144.51053	130.00845	174.13233	53.89594	102.68745	177.84298	57.04809	24.09785	118.56329	37.25992	79.80232	288.98639	29.63785	54.14687	218.01994	675.95011	31.56331	240.59164	672.98022	-126.92493	310.45356	361.13052	32.059	314.24511	351.59051	-137.75493	288.00051	738.28062	-40.51741	172.35707	47.21923	64.23866	152.80096	47.51578	-171.3288	
99	0.98	133.44188	1122.60258	-60.31673	109.19929	924.24574	-77.11993	246.55141	1049.54819	-47.57987	303.59699	736.23192	-149.64303	272.5085	740.33028	68.58769	167.0813	771.39404	-61.47775	307.76197	418.29093	-213.99535	316.16051	355.05643	-277.24714	408.45193	348.47563	-182.64457	310.50815	259.19829	-186.20996	314.88713	352.72707	-183.73754	203.5617	135.90333	-238.35761	156.65917	61.89024	-207.38705	157.40883	49.10734	-133.50555	95.01241	39.58471	-185.09655	268.65358	29.53317	-184.19668	300.64952	432.32481	112.97246	320.86987	361.50508	175.83402	409.76412	357.33794	68.28262	312.9402	265.98311	78.00903	313.7898	361.24919	77.93926	225.56438	144.50834	130.01443	174.14099	53.9013	102.69702	177.85168	57.04082	24.09556	118.5511	37.24879	79.8021	288.98186	29.63095	54.152	218.06439	675.95658	31.55046	240.64152	672.98027	-126.93339	310.47161	361.12926	32.05925	314.26098	351.58165	-137.75606	288.05275	738.2811	-40.52767	172.3655	47.21829	64.24239	152.78887	47.50455	-171.32894	
100	0.99	133.45282	1122.59048	-60.37409	109.23913	924.18367	-77.15018	246.55383	1049.54411	-47.62217	303.65174	736.22327	-149.65312	272.56039	740.33532	68.57278	167.10466	771.40674	-61.50529	307.78387	418.28391	-214.00645	316.18462	355.05932	-277.24797	408.46143	348.46539	-182.65304	310.52712	259.19122	-186.2115	314.90684	352.72026	-183.7411	203.58395	135.90878	-238.3579	156.66147	61.88218	-207.38698	157.39269	49.09243	-133.50417	95.01425	39.58691	-185.08653	268.65256	29.52974	-184.20573	300.6787	432.32171	112.96228	320.90779	361.51702	175.83186	409.781	357.33195	68.28733	312.94959	265.97439	78.00327	313.81278	361.25181	77.93865	225.56735	144.50319	130.01522	174.14039	53.90378	102.70004	177.86085	57.02944	24.09279	118.53814	37.24019	79.79875	288.97926	29.62465	54.15285	218.10557	675.966	31.53773	240.68482	672.97973	-126.94289	310.48757	361.12751	32.05916	314.2785	351.57004	-137.75978	288.10607	738.2793	-40.54017	172.36947	47.21377	64.24252	152.78129	47.49307	-171.32809	
101	1.0	133.45856	1122.57408	-60.42789	109.26616	924.13694	-77.18	246.56165	1049.54059	-47.66696	303.70775	736.21147	-149.66895	272.61306	740.33929	68.55433	167.11734	771.42777	-61.53134	307.80465	418.27585	-214.01704	316.21003	355.05849	-277.24864	408.47002	348.45457	-182.66102	310.55279	259.188	-186.21329	314.9291	352.71192	-183.74669	203.59779	135.90449	-238.35776	156.66761	61.87641	-207.38382	157.38198	49.07869	-133.501	95.01372	39.58408	-185.06933	268.6556	29.52827	-184.21273	300.7117	432.31839	112.95323	320.95423	361.52947	175.83374	409.80328	357.32864	68.28799	312.95731	265.95534	77.9979	313.83503	361.25364	77.938	225.57161	144.49425	130.00957	174.13207	53.90245	102.69831	177.86807	57.0178	24.09289	118.5285	37.23702	79.79465	288.97739	29.61975	54.1507	218.14086	675.97754	31.52059	240.72254	672.97982	-126.95824	310.49863	361.12438	32.05934	314.29918	351.55795	-137.76548	288.16041	738.27538	-40.55731	172.36861	47.20719	64.24168	152.77839	47.48338	-171.32469	
102	1.01	133.4556	1122.55924	-60.47818	109.27736	924.11024	-77.20924	246.57397	1049.53791	-47.7121	303.76146	736.19735	-149.68855	272.66154	740.34112	68.53363	167.11787	771.45496	-61.55253	307.82358	418.26725	-214.02537	316.23306	355.05145	-277.24787	408.47861	348.44324	-182.66582	310.58162	259.18715	-186.21264	314.95153	352.70198	-183.75159	203.60114	135.89181	-238.35475	156.67405	61.87468	-207.37669	157.37649	49.06631	-133.4935	95.00425	39.57725	-185.04272	268.66072	29.52833	-184.21317	300.74636	432.31505	112.94784	321.00307	361.53835	175.84117	409.82758	357.32485	68.2866	312.96109	265.92857	77.99544	313.85414	361.25311	77.93984	225.574	144.48153	130.00006	174.11862	53.89708	102.69519	177.87056	57.00894	24.09886	118.52359	37.23905	79.79325	288.97296	29.6158	54.14885	218.16707	675.98973	31.49975	240.75256	672.98043	-126.97829	310.50407	361.11944	32.06218	314.32128	351.54652	-137.77042	288.2115	738.26923	-40.57746	172.36284	47.20002	64.24306	152.77828	47.47644	-171.31704	
